<?xml version="1.0" standalone="no"?>
<!DOCTYPE svg PUBLIC "-//W3C//DTD SVG 20010904//EN"
 "http://www.w3.org/TR/2001/REC-SVG-20010904/DTD/svg10.dtd">
<svg version="1.0" xmlns="http://www.w3.org/2000/svg"
 width="2000.000000pt" height="2000.000000pt" viewBox="0 0 2000.000000 2000.000000"
 preserveAspectRatio="xMidYMid meet">

<g transform="translate(0.000000,2000.000000) scale(0.100000,-0.100000)"
fill="#000000" stroke="none">
<path d="M10100 17571 c0 -5 -39 -12 -87 -16 -419 -30 -861 -156 -1248 -355
-71 -37 -152 -79 -180 -93 -27 -14 -77 -31 -110 -37 -123 -23 -307 -72 -395
-105 -163 -61 -206 -83 -259 -131 -31 -28 -94 -69 -141 -93 -47 -23 -115 -63
-152 -89 -346 -244 -445 -348 -790 -822 -110 -151 -142 -198 -309 -445 -56
-82 -125 -184 -154 -225 -152 -219 -394 -634 -507 -870 -49 -102 -94 -194
-100 -205 -36 -63 -143 -286 -181 -375 -24 -58 -64 -145 -87 -195 -80 -170
-150 -377 -291 -855 -40 -137 -233 -714 -271 -810 -68 -173 -195 -382 -318
-525 -28 -33 -76 -103 -105 -156 -30 -53 -75 -121 -100 -151 -25 -30 -45 -58
-45 -63 0 -4 -21 -37 -47 -74 -112 -156 -137 -193 -218 -326 -47 -77 -90 -147
-95 -155 -17 -27 -164 -324 -188 -381 -13 -29 -28 -63 -33 -74 -13 -28 -57
-149 -79 -215 -131 -399 -187 -765 -177 -1150 4 -148 10 -220 22 -260 21 -70
28 -101 60 -285 32 -181 49 -256 82 -355 31 -93 102 -276 155 -395 22 -49 43
-99 48 -110 43 -101 198 -403 227 -441 188 -249 685 -775 1096 -1159 81 -76
147 -142 147 -147 0 -4 -19 -8 -42 -9 -98 -1 -411 -82 -573 -149 -16 -7 -39
-16 -50 -20 -186 -75 -501 -228 -527 -257 -19 -20 -169 -325 -191 -388 -69
-193 -121 -349 -147 -445 -25 -92 -41 -146 -51 -177 -5 -17 -21 -74 -34 -125
-13 -51 -27 -102 -30 -114 -5 -14 7 -38 38 -81 25 -33 69 -109 98 -169 291
-600 905 -1190 1576 -1517 229 -111 480 -210 603 -238 25 -6 97 -36 160 -68
113 -56 300 -131 376 -150 113 -28 162 -45 334 -116 l115 -47 125 -1 c134 -1
223 17 252 51 57 65 84 170 128 499 12 83 25 166 30 185 6 18 10 67 10 108 1
41 5 95 10 120 10 44 24 268 38 610 l7 165 60 76 c89 114 220 256 302 328 40
36 73 68 73 72 0 5 41 43 91 86 51 43 136 118 191 166 54 48 123 104 154 123
30 19 91 64 135 99 43 36 97 74 119 85 41 21 99 26 116 11 5 -5 34 -23 64 -39
30 -16 85 -45 122 -65 112 -61 248 -134 413 -222 293 -156 425 -236 737 -442
385 -256 412 -278 678 -543 170 -171 260 -253 295 -271 75 -39 248 -149 263
-167 7 -9 12 -44 12 -81 0 -159 62 -878 81 -927 11 -32 84 -49 172 -39 40 4
169 9 287 10 221 2 237 4 485 61 39 9 86 19 105 23 94 21 454 122 555 156 88
30 223 111 690 413 101 65 183 129 329 254 43 37 149 120 235 185 244 185 428
381 613 658 76 114 164 283 204 389 21 57 15 97 -36 281 -17 61 -34 119 -37
130 -44 163 -179 573 -195 592 -7 9 -57 45 -110 80 -54 35 -100 68 -103 72 -3
5 111 106 253 224 664 554 1076 958 1175 1152 14 28 35 59 46 69 38 35 147
188 205 289 31 54 56 99 56 102 0 2 13 32 29 67 61 136 99 259 141 458 19 90
43 309 43 400 0 99 -25 330 -49 445 -9 44 -20 98 -24 120 -29 142 -69 259 -95
277 -5 4 -6 10 -2 14 4 4 18 -5 31 -19 33 -35 46 -34 46 4 0 38 -51 235 -78
305 -21 51 -161 346 -214 448 -32 63 -202 340 -223 366 -13 15 -190 333 -212
380 -7 14 -23 60 -37 102 -14 42 -52 142 -85 221 -33 79 -67 168 -75 198 -15
58 -80 255 -101 304 -7 17 -20 50 -30 75 -27 71 -33 83 -55 110 -11 14 -43 93
-71 175 -52 152 -117 317 -163 412 -14 29 -26 59 -26 66 0 7 -4 17 -9 23 -4 5
-13 27 -19 49 -5 22 -22 78 -37 125 -15 47 -33 106 -41 133 -8 26 -21 71 -30
100 -8 28 -32 120 -54 202 -21 83 -51 191 -68 240 -27 83 -41 128 -78 260 -8
28 -18 64 -23 80 -5 17 -17 57 -26 90 -9 33 -23 78 -30 100 -7 22 -25 81 -40
130 -15 50 -40 133 -56 185 -15 52 -47 158 -69 235 -22 77 -47 163 -55 190 -8
28 -21 75 -29 105 -27 105 -68 255 -88 325 -11 39 -23 84 -27 100 -13 53 -71
196 -122 303 -27 56 -49 107 -49 112 0 6 -4 18 -9 28 -6 9 -19 44 -30 77 -23
71 -67 183 -81 207 -6 10 -10 22 -10 27 0 6 -16 45 -36 88 -20 43 -46 98 -57
123 -12 25 -34 68 -51 95 -36 61 -159 308 -211 425 -48 106 -207 425 -253 505
-241 420 -416 640 -608 767 -155 103 -602 325 -764 378 -14 5 -63 23 -110 40
-301 111 -606 194 -895 244 -175 30 -225 36 -357 47 -73 6 -134 15 -136 20 -5
12 -452 12 -452 0z m-2550 -2721 c0 -16 9 -82 20 -147 12 -65 25 -145 31 -178
5 -33 14 -76 19 -95 5 -19 18 -71 29 -115 46 -186 113 -395 162 -505 7 -14 15
-34 20 -45 4 -11 32 -72 62 -136 214 -456 534 -826 927 -1070 127 -78 372
-190 500 -228 254 -75 405 -102 700 -125 25 -2 70 -13 100 -25 81 -33 90 -35
89 -20 0 8 -27 37 -61 64 -77 63 -295 293 -388 409 -259 323 -374 595 -346
819 4 32 11 57 14 57 4 0 52 -51 107 -114 108 -123 431 -447 585 -587 136
-124 534 -439 647 -514 24 -15 41 -31 38 -35 -2 -4 -38 -10 -80 -13 -173 -15
-380 -72 -550 -151 -476 -224 -824 -667 -931 -1186 -10 -47 -19 -86 -20 -88
-1 -2 -22 12 -48 31 -92 71 -223 86 -326 39 -24 -12 -45 -20 -46 -19 -1 1 2
43 8 92 17 160 -2 370 -52 560 -71 271 -203 510 -392 711 -68 72 -88 100 -88
122 0 22 -16 43 -72 98 -78 74 -218 184 -236 184 -5 0 -12 6 -15 13 -3 8 -20
22 -39 31 -18 9 -46 25 -63 36 -28 18 -81 47 -122 68 -10 6 -36 18 -58 27 -22
10 -49 22 -59 28 -30 15 -148 58 -182 67 -18 4 -38 11 -45 16 -13 8 -51 16
-164 35 -33 5 -69 14 -80 20 -28 14 -496 6 -560 -9 -27 -7 -74 -18 -103 -24
-29 -6 -57 -17 -63 -25 -14 -16 -29 -17 -29 0 0 6 14 39 31 72 39 73 62 122
99 200 16 33 47 101 71 150 23 50 62 133 86 185 98 209 287 578 340 662 13 21
23 40 23 43 0 16 159 254 213 318 34 41 111 133 170 206 60 72 113 129 118
126 5 -4 9 -19 9 -35z m-722 -2095 c-3 -3 -55 -19 -114 -35 -167 -43 -306
-102 -449 -190 -36 -22 -65 -38 -65 -35 0 4 24 60 70 161 10 22 24 45 32 52
15 12 135 39 203 45 66 6 329 7 323 2z m242 -34 c87 -18 135 -32 145 -42 5 -5
18 -9 30 -9 12 0 30 -7 41 -15 10 -8 29 -15 40 -15 12 0 27 -7 34 -15 7 -8 20
-15 29 -16 9 0 30 -9 46 -20 17 -10 40 -23 53 -29 28 -12 181 -113 207 -137
11 -10 53 -46 93 -81 40 -34 108 -102 150 -151 76 -88 78 -89 123 -90 25 -1
59 6 75 14 40 20 108 92 129 138 l18 38 49 -48 c102 -98 216 -259 292 -410
129 -259 192 -584 167 -864 -7 -75 -18 -135 -28 -153 -9 -17 -17 -58 -18 -91
-4 -124 -126 -407 -250 -580 -252 -352 -609 -585 -1035 -677 -91 -19 -135 -22
-320 -22 -186 0 -229 3 -320 23 -279 60 -532 181 -742 355 l-68 56 0 498 c0
411 15 1017 26 1030 1 2 31 -16 66 -41 35 -24 82 -54 104 -65 41 -21 94 -94
94 -129 0 -8 6 -13 12 -11 9 3 12 25 10 75 -4 79 2 95 81 204 47 67 150 166
235 226 57 41 185 104 237 116 75 18 251 20 319 3 34 -9 90 -16 125 -16 65 0
125 -22 118 -43 -2 -7 -26 -20 -54 -29 -70 -23 -196 -106 -234 -154 -67 -82
-107 -215 -110 -361 -2 -54 3 -73 35 -135 73 -145 124 -193 256 -240 72 -25
204 -34 267 -19 80 20 213 92 242 130 14 19 42 53 62 75 20 23 44 56 53 74 31
60 84 16 65 -54 -7 -25 -6 -41 6 -63 8 -17 15 -40 15 -53 1 -13 7 -34 15 -48
8 -14 14 -35 15 -47 0 -13 5 -23 11 -23 9 0 10 19 5 63 -3 34 -10 107 -16 162
-24 247 -70 460 -115 540 -68 119 -348 324 -500 366 -166 46 -182 49 -322 49
-178 0 -298 -25 -404 -83 -24 -13 -98 -53 -164 -87 -66 -34 -156 -82 -200
-105 -103 -55 -165 -74 -245 -77 l-65 -3 2 75 c5 153 67 582 98 672 2 7 9 32
15 56 10 38 19 48 78 86 221 143 542 252 707 241 39 -2 90 -9 115 -14z m3880
-548 c49 -32 90 -61 90 -64 0 -8 -132 -29 -235 -38 -44 -4 -87 -11 -95 -16 -8
-5 -48 -12 -90 -16 -132 -14 -235 -30 -244 -40 -6 -5 -33 -9 -60 -9 -28 -1
-62 -7 -76 -15 -14 -8 -43 -14 -65 -15 -44 0 -105 -32 -105 -53 0 -8 -7 -28
-15 -45 -14 -28 -14 -34 -1 -67 17 -40 52 -74 77 -75 9 0 22 -7 29 -15 16 -20
116 -20 150 0 14 8 44 14 66 15 23 0 55 7 70 15 16 8 50 15 76 15 26 0 50 5
53 10 3 6 25 10 48 10 23 1 60 7 82 15 22 8 59 15 82 15 23 0 54 5 70 11 15 7
60 15 98 20 39 4 122 15 185 23 63 9 147 19 185 22 39 4 77 11 86 15 12 6 51
-6 125 -37 191 -81 468 -164 546 -164 40 0 85 -48 183 -195 168 -251 258 -521
280 -837 8 -123 11 -122 -120 -44 -27 17 -90 68 -140 116 -264 252 -416 348
-691 439 -156 51 -404 74 -569 51 -134 -19 -322 -68 -386 -101 -32 -16 -236
-256 -310 -364 -66 -97 -139 -240 -139 -272 1 -16 2 -16 12 2 78 142 311 409
418 480 37 25 72 45 77 45 5 0 20 12 34 26 13 14 35 31 49 36 56 22 267 69
287 63 27 -6 30 -23 6 -31 -168 -53 -241 -105 -291 -206 -45 -91 -55 -139 -59
-274 -4 -118 -3 -122 28 -189 32 -70 98 -144 169 -190 51 -34 173 -63 250 -61
73 2 183 47 234 94 55 52 104 128 129 203 23 68 24 83 17 174 -5 64 -17 128
-34 180 -26 77 -32 148 -14 172 9 11 82 -9 139 -37 138 -69 151 -79 294 -203
164 -142 344 -230 525 -259 94 -15 92 -9 59 -158 -11 -52 -18 -103 -15 -113 7
-26 -36 -177 -83 -292 -179 -437 -562 -793 -1016 -944 -184 -61 -278 -75 -515
-75 -241 0 -328 13 -529 80 -521 173 -938 619 -1076 1151 -220 846 253 1716
1085 1994 137 46 303 77 412 78 l77 1 91 -57z m1470 -529 c114 -25 195 -47
204 -56 6 -4 19 -8 29 -8 18 0 57 -15 125 -49 63 -30 105 -91 213 -311 59
-118 115 -235 124 -260 10 -25 24 -59 31 -77 8 -17 14 -38 14 -46 0 -9 5 -19
10 -22 6 -3 10 -14 10 -24 0 -22 -74 -34 -335 -56 -209 -18 -253 -27 -264 -58
-8 -21 -8 -21 -14 -2 -3 11 -8 52 -12 90 -26 279 -144 577 -321 812 -35 46
-64 87 -64 90 0 9 180 -8 250 -23z m-5160 -214 c23 -23 26 -70 10 -147 -5 -26
-12 -69 -15 -95 -9 -68 -46 -110 -93 -106 -74 6 -98 103 -57 238 34 112 104
161 155 110z m3646 -605 c24 -24 25 -30 19 -88 -20 -190 -44 -239 -110 -223
-41 10 -58 57 -53 150 8 151 77 228 144 161z m-1789 -91 c18 -13 40 -38 50
-54 9 -17 22 -30 29 -30 7 0 13 -46 17 -138 18 -414 180 -798 461 -1089 232
-241 488 -393 800 -473 160 -41 297 -54 483 -47 257 10 448 58 678 172 408
202 715 561 852 994 20 64 38 118 40 120 2 3 10 -4 18 -15 13 -18 14 -18 21
12 5 28 10 32 48 36 27 3 62 19 96 42 54 37 103 62 223 112 34 15 110 50 169
80 103 51 107 53 120 34 13 -19 17 -19 158 28 180 60 239 77 316 91 125 23
208 7 218 -42 3 -12 7 -105 10 -207 8 -255 38 -565 75 -775 22 -118 69 -256
101 -298 11 -14 20 -29 20 -34 0 -5 -33 -38 -72 -73 -150 -134 -343 -329 -431
-435 -50 -60 -118 -139 -151 -173 -113 -118 -288 -249 -411 -306 -22 -10 -48
-23 -57 -27 -10 -5 -35 -13 -58 -19 -22 -5 -59 -15 -82 -21 -51 -13 -285 -5
-343 12 -95 27 -164 82 -195 155 -10 23 -23 45 -28 48 -6 3 -21 -11 -33 -31
-37 -61 -216 -296 -374 -492 -103 -128 -302 -348 -435 -481 -319 -320 -567
-504 -848 -627 -41 -18 -83 -44 -95 -60 -12 -15 -50 -59 -85 -98 -97 -108
-120 -162 -172 -410 -26 -122 -27 -329 -1 -440 28 -125 93 -259 150 -309 18
-16 25 -17 47 -7 15 6 28 10 30 9 1 -2 -21 -31 -49 -65 -57 -68 -204 -184
-428 -336 -79 -54 -189 -134 -244 -177 -55 -44 -149 -111 -210 -149 -60 -38
-123 -83 -139 -100 -17 -17 -34 -31 -39 -31 -4 0 -28 -14 -52 -30 -56 -39 -96
-47 -118 -25 -28 27 -20 58 27 104 55 54 136 172 136 198 0 11 11 29 25 41 56
48 23 100 -104 163 -75 37 -91 41 -150 40 -74 -1 -89 4 -396 133 -99 42 -186
76 -194 76 -23 0 -108 29 -256 86 -210 82 -418 225 -659 455 l-49 46 2 383 2
382 -143 142 c-239 235 -444 481 -653 785 -56 82 -185 287 -185 294 0 2 -23
43 -50 91 -43 75 -165 319 -204 411 -7 17 -18 41 -24 55 -10 22 -29 72 -87
220 -42 106 -124 398 -158 560 -9 41 -24 109 -33 150 -14 64 -37 456 -28 469
2 2 31 -19 66 -47 219 -173 467 -289 740 -344 97 -20 142 -23 323 -22 178 0
226 4 314 23 162 35 285 77 426 147 397 197 696 538 841 961 21 59 42 110 47
112 5 2 21 17 35 33 15 17 36 35 47 41 63 34 212 30 262 -9z m-419 -5840 c140
-58 173 -224 70 -356 -33 -42 -118 -88 -164 -88 -71 0 -162 57 -196 123 -42
83 -15 229 52 277 81 58 167 74 238 44z m1184 -541 c106 -40 155 -112 145
-214 -6 -67 -58 -164 -110 -203 -68 -52 -177 -57 -249 -13 -41 25 -96 90 -103
121 -22 112 -15 140 52 221 30 36 69 75 86 86 40 24 121 25 179 2z m-2095
-304 c58 -28 86 -69 91 -136 8 -93 -52 -211 -131 -257 -68 -40 -123 -49 -180
-32 -104 31 -160 94 -160 179 0 178 222 322 380 246z m3218 -573 c115 -68 155
-190 101 -308 -41 -90 -115 -150 -204 -164 -80 -13 -197 42 -238 110 -27 46
-22 144 11 213 32 64 130 169 166 176 47 10 121 -2 164 -27z"/>
<path d="M7480 8356 c0 -20 131 -133 202 -174 22 -13 54 -37 72 -55 17 -18 45
-39 63 -49 17 -9 49 -43 70 -75 21 -32 41 -60 46 -61 4 -2 13 -10 20 -17 23
-22 126 -74 158 -79 39 -6 59 2 52 20 -7 19 20 18 89 -6 31 -10 79 -21 105
-25 26 -3 66 -10 88 -15 22 -6 85 -14 140 -19 55 -5 142 -17 194 -25 76 -13
101 -14 130 -5 50 17 219 35 261 29 l35 -6 -35 -11 c-19 -7 -57 -15 -85 -19
-78 -10 -89 -23 -20 -24 61 0 134 20 224 63 40 19 43 22 22 25 -13 2 -27 -2
-31 -8 -4 -6 -20 -10 -36 -8 -25 4 -27 5 -9 12 11 4 28 12 37 17 10 5 38 9 62
9 34 0 52 7 77 27 28 24 44 28 118 33 50 3 99 12 116 22 17 9 49 19 70 23 97
15 235 63 235 81 0 16 -23 18 -49 5 -13 -7 -233 -41 -266 -41 -4 0 -4 8 -1 17
8 21 -10 33 -50 33 -17 0 -50 6 -75 14 -24 7 -64 19 -89 27 -40 11 -59 19
-123 51 -10 5 -37 13 -60 18 -80 17 -132 30 -152 39 -42 19 -266 41 -413 41
-85 0 -162 5 -172 10 -11 6 -56 18 -102 26 -95 19 -463 23 -495 5 -11 -5 -75
-11 -144 -12 l-125 -2 -55 35 c-30 19 -60 42 -68 51 -16 21 -31 22 -31 3z"/>
</g>
</svg>
